<svg width="290" height="119" viewBox="0 0 290 119" fill="none" xmlns="http://www.w3.org/2000/svg">
<rect width="290" height="119" fill="white"/>
<path d="M61.3224 92.6045C65.8776 92.6045 69.5704 88.9118 69.5704 84.3566C69.5704 79.8014 65.8776 76.1086 61.3224 76.1086C56.7672 76.1086 53.0745 79.8014 53.0745 84.3566C53.0745 88.9118 56.7672 92.6045 61.3224 92.6045Z" fill="#3F3F3F"/>
<path d="M41.5274 69.5106H56.3737C57.2843 69.5106 58.0233 68.7716 58.0233 67.861C58.0233 66.9504 57.2843 66.2114 56.3737 66.2114H41.5274C40.6168 66.2114 39.8778 66.9504 39.8778 67.861C39.8778 68.7716 40.6168 69.5106 41.5274 69.5106Z" fill="#FF5634"/>
<path d="M100.913 92.6045C105.468 92.6045 109.16 88.9118 109.16 84.3566C109.16 79.8014 105.468 76.1086 100.913 76.1086C96.3573 76.1086 92.6646 79.8014 92.6646 84.3566C92.6646 88.9118 96.3573 92.6045 100.913 92.6045Z" fill="#3F3F3F"/>
<path d="M100.912 87.656C102.735 87.656 104.212 86.1789 104.212 84.3568C104.212 82.5347 102.735 81.0576 100.912 81.0576C99.0904 81.0576 97.6133 82.5347 97.6133 84.3568C97.6133 86.1789 99.0904 87.656 100.912 87.656Z" fill="white"/>
<path d="M61.3224 87.656C63.1445 87.656 64.6216 86.1789 64.6216 84.3568C64.6216 82.5347 63.1445 81.0576 61.3224 81.0576C59.5003 81.0576 58.0232 82.5347 58.0232 84.3568C58.0232 86.1789 59.5003 87.656 61.3224 87.656Z" fill="white"/>
<path d="M100.913 86.0058C100.253 86.0058 99.7579 85.6759 99.428 85.016L92.8296 71.8193C92.4997 70.9945 92.8296 70.0048 93.4895 69.6748C94.3143 69.3449 95.304 69.6748 95.6339 70.3347L102.232 83.5314C102.562 84.3562 102.232 85.3459 101.572 85.6759C101.407 86.0058 101.243 86.0058 100.913 86.0058Z" fill="#E13F1F"/>
<path d="M66.2712 84.3566H85.08C87.4468 84.3566 89.2566 82.3809 90.0055 80.1358C91.6739 75.1344 96.3117 73.0093 100.418 72.4795C102.727 72.3146 102.562 69.5103 102.562 69.5103C99.263 57.9631 91.0151 49.7152 87.7159 46.416H84.4167C89.2286 55.7197 90.6472 79.8664 77.8184 79.4078H66.2712V84.3566Z" fill="#E13F1F"/>
<path d="M74.5191 64.5613H58.0232C54.724 67.8605 51.4248 74.4588 51.4248 79.4076C54.724 81.0572 66.2711 79.4076 66.2711 79.4076H77.8182C71.4261 79.4076 69.5703 70.2903 74.5191 64.5613Z" fill="#E13F1F"/>
<path d="M91.0151 41.4667V48.065C92.8297 48.065 94.3143 46.5804 94.3143 44.7659C94.3143 42.9513 92.8297 41.4667 91.0151 41.4667Z" fill="#FFC107"/>
<path d="M78.2308 65.8809C78.2308 66.3065 78.0015 66.6958 77.6205 66.8839C76.469 67.4497 73.6367 68.5203 68.6632 68.5203C61.8999 68.5203 56.7861 66.2109 56.7861 66.2109V65.3861C56.7861 63.108 58.632 61.2621 60.9101 61.2621H73.612C76.1523 61.2621 78.2308 63.3406 78.2308 65.8809Z" fill="#3F3F3F"/>
<path d="M84.4299 47.0373C86.5001 47.7054 88.7023 48.032 91.015 48.065V41.4667C88.7172 41.498 86.4902 41.8675 84.3309 42.5571C83.3824 42.8589 82.7671 43.781 82.7671 44.7758C82.7671 45.8117 83.4451 46.7206 84.4299 47.0373Z" fill="#FF5634"/>
<path d="M61.3224 72.8091C56.1672 72.8091 50.8442 75.9544 48.0616 80.5734C46.9827 82.3645 48.5016 84.3562 50.5926 84.3562H69.6554C71.4305 84.3562 72.9161 82.8903 72.4425 81.1796C71.0918 76.3011 66.6832 72.8091 61.3224 72.8091Z" fill="#FF5634"/>
<path d="M74.5192 48.0658H86.0663C86.9769 48.0658 87.7159 47.3268 87.7159 46.4162C87.7159 45.5056 86.9769 44.7666 86.0663 44.7666H74.5192C73.6086 44.7666 72.8696 45.5056 72.8696 46.4162C72.8696 47.3268 73.6086 48.0658 74.5192 48.0658Z" fill="#3F3F3F"/>
<path d="M56.3736 48.0653H34.929V62.9967C34.929 64.7718 36.368 66.2108 38.1431 66.2108H53.1595C54.9346 66.2108 56.3736 64.7718 56.3736 62.9967V48.0653Z" fill="#FDB52A"/>
<path d="M54.2309 46.416H37.0717C35.8883 46.416 34.929 47.3753 34.929 48.5587V51.3648H56.3736V48.5587C56.3736 47.3753 55.4143 46.416 54.2309 46.416Z" fill="#D99002"/>
<path d="M59.6728 28.2704H38.2281V43.2018C38.2281 44.9769 39.6672 46.4159 41.4422 46.4159H56.4587C58.2338 46.4159 59.6728 44.9769 59.6728 43.2018V28.2704Z" fill="#FDB52A"/>
<path d="M57.5301 26.6211H40.3709C39.1875 26.6211 38.2281 27.5804 38.2281 28.7638V31.5699H59.6728V28.7638C59.6728 27.5804 58.7135 26.6211 57.5301 26.6211Z" fill="#D99002"/>
<path d="M127.235 49.835H131.809C136.105 49.835 139.154 47.1759 139.154 43.4383C139.154 39.7007 136.105 37.0602 131.809 37.0602H127.235V49.835ZM129.968 47.3432V39.5519H132.162C134.598 39.5519 136.328 41.1697 136.328 43.4383C136.328 45.7255 134.598 47.3432 132.162 47.3432H129.968ZM145.732 47.6593C144.598 47.6593 143.761 46.9527 143.445 45.9114H150.381C150.381 42.2854 148.614 39.9982 145.602 39.9982C142.794 39.9982 140.656 42.0994 140.656 45.0002C140.656 47.9569 142.887 50.0581 145.751 50.0581C147.164 50.0581 148.819 49.4631 149.674 48.5705L147.945 46.804C147.424 47.306 146.494 47.6593 145.732 47.6593ZM145.713 42.3969C146.81 42.3969 147.517 43.0106 147.777 43.9589H143.482C143.835 42.992 144.691 42.3969 145.713 42.3969ZM152.217 49.835H154.932V36.837H152.217V49.835ZM158.659 38.9011C159.459 38.9011 160.11 38.2317 160.11 37.4135C160.11 36.6511 159.459 35.9631 158.659 35.9631C157.823 35.9631 157.172 36.6511 157.172 37.4135C157.172 38.2317 157.823 38.9011 158.659 38.9011ZM157.283 49.835H159.998V40.2213H157.283V49.835ZM165.585 49.835H168.096L172.205 40.2213H169.379L166.85 46.711L164.265 40.2213H161.42L165.585 49.835ZM177.583 47.6593C176.449 47.6593 175.612 46.9527 175.296 45.9114H182.232C182.232 42.2854 180.465 39.9982 177.453 39.9982C174.645 39.9982 172.507 42.0994 172.507 45.0002C172.507 47.9569 174.738 50.0581 177.602 50.0581C179.015 50.0581 180.67 49.4631 181.525 48.5705L179.796 46.804C179.275 47.306 178.346 47.6593 177.583 47.6593ZM177.565 42.3969C178.662 42.3969 179.368 43.0106 179.629 43.9589H175.333C175.687 42.992 176.542 42.3969 177.565 42.3969ZM186.784 42.0064V40.2213H184.069V49.835H186.784V45.242C186.784 43.4383 188.067 42.2854 190.075 42.2854V39.9982C188.606 39.9982 187.416 40.7606 186.784 42.0064ZM193.835 53.1821C195.341 53.1821 196.569 52.1965 197.294 50.3184L201.236 40.2213H198.465L196.067 46.9713L193.538 40.2213H190.73L194.728 49.9279L194.393 50.6345C194.189 50.9879 193.78 51.1552 193.259 51.1552C192.943 51.1552 192.459 50.9879 191.994 50.7275L191.418 52.587C192.069 52.9403 193.036 53.1821 193.835 53.1821ZM213.06 47.4548C212.874 47.6407 212.503 47.7709 212.131 47.7709C211.629 47.7709 211.219 47.3246 211.219 46.6924V42.4155H213.302V40.2213H211.219V37.5808H208.616V40.2213H207.296V42.4155H208.616V47.1201C208.616 48.8494 209.806 50.0581 211.498 50.0581C212.279 50.0581 213.153 49.7234 213.711 49.2213L213.06 47.4548ZM216.769 38.9011C217.569 38.9011 218.219 38.2317 218.219 37.4135C218.219 36.6511 217.569 35.9631 216.769 35.9631C215.932 35.9631 215.281 36.6511 215.281 37.4135C215.281 38.2317 215.932 38.9011 216.769 38.9011ZM215.393 49.835H218.108V40.2213H215.393V49.835ZM231.914 39.9982C230.482 39.9982 229.292 40.6862 228.79 41.7461C228.195 40.6676 227.061 39.9982 225.74 39.9982C224.55 39.9982 223.602 40.5746 223.137 41.4858V40.2213H220.422V49.835H223.137V44.0333C223.137 43.0106 223.899 42.2854 224.997 42.2854C225.982 42.2854 226.689 43.0664 226.689 44.1821V49.8536H229.292V44.0333C229.292 43.0106 230.073 42.2854 231.151 42.2854C232.156 42.2854 232.862 43.0664 232.862 44.1821V49.8536H235.466V43.7172C235.466 41.5416 233.922 39.9982 231.914 39.9982ZM242.285 47.6593C241.15 47.6593 240.313 46.9527 239.997 45.9114H246.933C246.933 42.2854 245.167 39.9982 242.154 39.9982C239.347 39.9982 237.208 42.0994 237.208 45.0002C237.208 47.9569 239.439 50.0581 242.303 50.0581C243.716 50.0581 245.371 49.4631 246.227 48.5705L244.497 46.804C243.977 47.306 243.047 47.6593 242.285 47.6593ZM242.266 42.3969C243.363 42.3969 244.07 43.0106 244.33 43.9589H240.035C240.388 42.992 241.243 42.3969 242.266 42.3969Z" fill="#121212"/>
<path d="M129.262 80.8267H131.158V68.0519H129.633L126.268 70.3391L127.049 71.6965L129.262 70.2833V80.8267ZM139.21 72.7564C137.797 72.7564 136.514 73.3886 135.733 74.4486C135.789 71.6221 137.258 69.5209 139.21 69.5209C140.382 69.5209 141.181 70.0229 141.981 70.7481L142.948 69.2977C141.962 68.4238 140.791 67.8287 139.229 67.8287C136.105 67.8287 133.818 70.7667 133.818 74.6345C133.818 78.2791 135.324 81.0498 138.876 81.0498C141.572 81.0498 143.506 79.2089 143.506 76.7543C143.506 74.2254 141.553 72.7564 139.21 72.7564ZM138.801 79.4506C137.128 79.4506 136.217 78.2234 135.882 76.401C136.217 75.1552 137.351 74.337 138.764 74.337C140.326 74.337 141.572 75.2853 141.572 76.8473C141.572 78.1304 140.531 79.4506 138.801 79.4506ZM161.934 70.9899C160.483 70.9899 159.256 71.7337 158.81 72.9238C158.252 71.7337 157.118 70.9899 155.723 70.9899C154.496 70.9899 153.492 71.6035 153.008 72.5519V71.213H151.167V80.8267H153.008V74.8205C153.008 73.5002 153.975 72.5891 155.351 72.5891C156.56 72.5891 157.397 73.5746 157.397 74.9878V80.8267H159.2V74.8205C159.2 73.5002 160.167 72.5891 161.543 72.5891C162.752 72.5891 163.589 73.5746 163.589 74.9878V80.8267H165.392V74.7089C165.392 72.5333 163.942 70.9899 161.934 70.9899ZM168.949 69.6138C169.544 69.6138 170.046 69.0932 170.046 68.4981C170.046 67.9217 169.544 67.401 168.949 67.401C168.316 67.401 167.833 67.9217 167.833 68.4981C167.833 69.0932 168.316 69.6138 168.949 69.6138ZM168.019 80.8267H169.86V71.213H168.019V80.8267ZM177.413 70.9899C176.112 70.9899 174.94 71.6593 174.364 72.6077V71.213H172.523V80.8267H174.364V74.5973C174.513 73.463 175.665 72.5891 177.004 72.5891C178.306 72.5891 179.217 73.5932 179.217 75.025V80.8267H181.021V74.7089C181.021 72.5333 179.533 70.9899 177.413 70.9899ZM190.274 71.213V77.4424C190.126 78.5767 188.973 79.4506 187.634 79.4506C186.332 79.4506 185.421 78.4465 185.421 77.0147V71.213H183.617V77.3308C183.617 79.5064 185.105 81.0498 187.225 81.0498C188.526 81.0498 189.698 80.3804 190.274 79.432V80.8267H192.115V71.213H190.274ZM199.286 79.0973C199.082 79.3019 198.71 79.4506 198.301 79.4506C197.761 79.4506 197.315 78.9672 197.315 78.2977V72.775H199.584V71.213H197.315V68.5725H195.511V71.213H194.061V72.775H195.511V78.4279C195.511 79.9713 196.553 81.0498 198.04 81.0498C198.728 81.0498 199.435 80.7895 199.956 80.3618L199.286 79.0973ZM206.239 79.4134C204.584 79.4134 203.412 78.2605 203.171 76.6614H210.739C210.739 73.2213 209.047 70.9899 206.109 70.9899C203.45 70.9899 201.311 73.1097 201.311 75.9919C201.311 78.9486 203.58 81.0498 206.258 81.0498C207.615 81.0498 209.288 80.4734 210.144 79.5622L208.991 78.3721C208.415 78.9672 207.243 79.4134 206.239 79.4134ZM206.183 72.6262C207.838 72.6262 208.749 73.7048 208.954 75.1924H203.189C203.487 73.6304 204.696 72.6262 206.183 72.6262ZM216.35 81.0498C218.451 81.0498 219.995 79.8969 219.995 78.0746C219.995 76.1593 218.302 75.6386 216.722 75.1738C215.104 74.6717 214.509 74.4486 214.509 73.7048C214.509 72.9796 215.253 72.5705 216.201 72.5705C217.038 72.5705 218.005 72.8866 218.935 73.463L219.753 72.1056C218.712 71.4176 217.447 70.9899 216.201 70.9899C214.156 70.9899 212.687 72.1428 212.705 73.9093C212.705 75.4713 213.802 76.1035 216.015 76.7172C217.205 77.0519 218.191 77.3308 218.191 78.2234C218.191 78.9672 217.447 79.4692 216.369 79.4692C215.234 79.4692 214.137 79.0415 213.114 78.2977L212.24 79.618C213.393 80.5477 214.937 81.0498 216.35 81.0498Z" fill="#656565"/>
</svg>
