<svg width="190" height="28" viewBox="0 0 190 28" fill="none" xmlns="http://www.w3.org/2000/svg">
<path d="M66.474 20.9664C64.9561 20.9664 63.6179 20.6368 62.4595 19.9777C61.3011 19.3186 60.3823 18.3999 59.7032 17.2215C59.0441 16.0431 58.7146 14.695 58.7146 13.177C58.7146 11.6591 59.0441 10.311 59.7032 9.13257C60.3823 7.95418 61.3011 7.03544 62.4595 6.37634C63.6179 5.71724 64.9561 5.3877 66.474 5.3877C68.3714 5.3877 69.9692 5.88701 71.2674 6.88564C72.5656 7.86431 73.3945 9.22245 73.754 10.9601H69.7096C69.5098 10.2411 69.1104 9.68182 68.5112 9.28236C67.932 8.86294 67.2429 8.65323 66.444 8.65323C65.3855 8.65323 64.4867 9.05268 63.7477 9.85159C63.0087 10.6505 62.6392 11.759 62.6392 13.177C62.6392 14.5951 63.0087 15.7036 63.7477 16.5025C64.4867 17.3014 65.3855 17.7008 66.444 17.7008C67.2429 17.7008 67.932 17.5011 68.5112 17.1017C69.1104 16.7022 69.5098 16.133 69.7096 15.394H73.754C73.3945 17.0717 72.5656 18.4199 71.2674 19.4385C69.9692 20.4571 68.3714 20.9664 66.474 20.9664Z" fill="#121212"/>
<path d="M83.6887 20.9664C82.2507 20.9664 80.9524 20.6368 79.794 19.9777C78.6556 19.3186 77.7468 18.4099 77.0678 17.2515C76.4087 16.0731 76.0791 14.7149 76.0791 13.177C76.0791 11.6391 76.4187 10.291 77.0977 9.13257C77.7768 7.95418 78.6856 7.03544 79.824 6.37634C80.9824 5.71724 82.2806 5.3877 83.7187 5.3877C85.1367 5.3877 86.415 5.71724 87.5534 6.37634C88.7118 7.03544 89.6206 7.95418 90.2797 9.13257C90.9588 10.291 91.2983 11.6391 91.2983 13.177C91.2983 14.7149 90.9588 16.0731 90.2797 17.2515C89.6206 18.4099 88.7118 19.3186 87.5534 19.9777C86.395 20.6368 85.1068 20.9664 83.6887 20.9664ZM83.6887 17.6409C84.6873 17.6409 85.5561 17.2714 86.2951 16.5324C87.0341 15.7735 87.4036 14.655 87.4036 13.177C87.4036 11.6991 87.0341 10.5906 86.2951 9.85159C85.5561 9.09262 84.6973 8.71314 83.7187 8.71314C82.7001 8.71314 81.8213 9.09262 81.0823 9.85159C80.3633 10.5906 80.0037 11.6991 80.0037 13.177C80.0037 14.655 80.3633 15.7735 81.0823 16.5324C81.8213 17.2714 82.6901 17.6409 83.6887 17.6409Z" fill="#121212"/>
<path d="M94.1278 20.6069V5.7472H97.5131L97.8427 7.75446C98.322 7.03544 98.9512 6.46622 99.7301 6.04679C100.529 5.60739 101.448 5.3877 102.486 5.3877C104.783 5.3877 106.411 6.27648 107.37 8.05405C107.909 7.23517 108.628 6.58605 109.527 6.10671C110.445 5.62737 111.444 5.3877 112.523 5.3877C114.46 5.3877 115.948 5.9669 116.986 7.12532C118.025 8.28373 118.544 9.98141 118.544 12.2183V20.6069H114.71V12.5779C114.71 11.2996 114.46 10.3209 113.961 9.64187C113.481 8.9628 112.732 8.62327 111.714 8.62327C110.675 8.62327 109.836 9.00275 109.197 9.76171C108.578 10.5207 108.268 11.5792 108.268 12.9374V20.6069H104.434V12.5779C104.434 11.2996 104.184 10.3209 103.685 9.64187C103.185 8.9628 102.416 8.62327 101.378 8.62327C100.359 8.62327 99.5304 9.00275 98.8913 9.76171C98.2721 10.5207 97.9625 11.5792 97.9625 12.9374V20.6069H94.1278Z" fill="#121212"/>
<path d="M121.586 27.1978V5.7472H125.001L125.421 7.87429C125.9 7.21519 126.529 6.63599 127.308 6.13667C128.107 5.63735 129.136 5.3877 130.394 5.3877C131.792 5.3877 133.04 5.72723 134.139 6.4063C135.237 7.08537 136.106 8.0141 136.745 9.19249C137.384 10.3709 137.704 11.709 137.704 13.207C137.704 14.7049 137.384 16.0431 136.745 17.2215C136.106 18.3799 135.237 19.2987 134.139 19.9777C133.04 20.6368 131.792 20.9664 130.394 20.9664C129.275 20.9664 128.297 20.7567 127.458 20.3372C126.619 19.9178 125.94 19.3286 125.421 18.5697V27.1978H121.586ZM129.585 17.611C130.803 17.611 131.812 17.2015 132.611 16.3826C133.41 15.5638 133.809 14.5052 133.809 13.207C133.809 11.9088 133.41 10.8402 132.611 10.0014C131.812 9.16253 130.803 8.7431 129.585 8.7431C128.347 8.7431 127.328 9.16253 126.529 10.0014C125.75 10.8203 125.361 11.8788 125.361 13.177C125.361 14.4753 125.75 15.5438 126.529 16.3826C127.328 17.2015 128.347 17.611 129.585 17.611Z" fill="#121212"/>
<path d="M145.653 20.9664C144.375 20.9664 143.326 20.7667 142.508 20.3672C141.689 19.9478 141.08 19.3985 140.68 18.7194C140.281 18.0404 140.081 17.2914 140.081 16.4725C140.081 15.0944 140.62 13.9759 141.699 13.1171C142.777 12.2583 144.395 11.8289 146.552 11.8289H150.327V11.4694C150.327 10.4508 150.037 9.70179 149.458 9.22245C148.879 8.7431 148.16 8.50343 147.301 8.50343C146.522 8.50343 145.843 8.69317 145.264 9.07265C144.685 9.43216 144.325 9.97142 144.185 10.6904H140.44C140.54 9.61191 140.9 8.6732 141.519 7.87429C142.158 7.07538 142.977 6.46622 143.976 6.04679C144.974 5.60739 146.093 5.3877 147.331 5.3877C149.448 5.3877 151.116 5.91697 152.334 6.97552C153.552 8.03407 154.162 9.53202 154.162 11.4694V20.6069H150.896L150.537 18.2101C150.097 19.0091 149.478 19.6682 148.679 20.1874C147.9 20.7067 146.892 20.9664 145.653 20.9664ZM146.522 17.9705C147.621 17.9705 148.469 17.611 149.069 16.892C149.688 16.1729 150.077 15.2842 150.237 14.2256H146.971C145.953 14.2256 145.224 14.4153 144.784 14.7948C144.345 15.1543 144.125 15.6037 144.125 16.143C144.125 16.7222 144.345 17.1716 144.784 17.4911C145.224 17.8107 145.803 17.9705 146.522 17.9705Z" fill="#121212"/>
<path d="M157.222 20.6069V5.7472H160.607L160.907 8.26376C161.366 7.38496 162.025 6.68592 162.884 6.16663C163.763 5.64734 164.792 5.3877 165.97 5.3877C167.807 5.3877 169.235 5.9669 170.254 7.12532C171.273 8.28373 171.782 9.98141 171.782 12.2183V20.6069H167.947V12.5779C167.947 11.2996 167.688 10.3209 167.168 9.64187C166.649 8.9628 165.84 8.62327 164.742 8.62327C163.663 8.62327 162.774 9.00275 162.075 9.76171C161.396 10.5207 161.057 11.5792 161.057 12.9374V20.6069H157.222Z" fill="#121212"/>
<path d="M176.21 27.1978L179.655 19.6182H178.756L172.974 5.7472H177.139L181.303 16.2029L185.647 5.7472H189.721L180.284 27.1978H176.21Z" fill="#121212"/>
<path d="M14.5037 25.1193C13.7798 25.8433 12.6057 25.8423 11.883 25.1171L1.30471 14.5024C0.583777 13.779 0.58478 12.6084 1.30695 11.8863L11.8853 1.30793C12.6075 0.585759 13.778 0.584753 14.5014 1.30569L25.1161 11.884C25.8413 12.6067 25.8423 13.7807 25.1184 14.5047L14.5037 25.1193Z" fill="#FFCCC2"/>
<path d="M27.7394 25.1161C27.0167 25.8413 25.8427 25.8423 25.1188 25.1184L14.5041 14.5037C13.7801 13.7798 13.7812 12.6057 14.5063 11.883L25.121 1.30471C25.8444 0.583777 27.015 0.58478 27.7371 1.30695L38.3155 11.8853C39.0377 12.6075 39.0387 13.778 38.3177 14.5014L27.7394 25.1161Z" fill="#FFAA99"/>
<path d="M37.5495 25.1175C36.8262 25.842 35.6524 25.8419 34.9291 25.1175L24.3308 14.5027C23.6083 13.779 23.6093 12.6065 24.3331 11.8841L34.9313 1.30554C35.6541 0.58412 36.8245 0.584118 37.5473 1.30554L48.1455 11.8841C48.8693 12.6065 48.8703 13.779 48.1478 14.5027L37.5495 25.1175Z" fill="#FF5634"/>
</svg>
