<svg width="78" height="78" viewBox="0 0 78 78" fill="none" xmlns="http://www.w3.org/2000/svg">
<rect width="78" height="78" fill="#F1F1F1"/>
<path d="M16.9611 54.6592C29.7274 50.6841 32.6598 27.9816 32.6598 27.9816L33.9241 27.9805C33.9241 27.9805 34.3602 45.3797 27.4006 54.6592H16.9611Z" fill="#E8AD8C"/>
<path d="M33.2002 28.1775L44.7997 16.5781C44.171 16.4481 43.5191 16.3809 42.8521 16.3809C37.521 16.3809 33.2002 20.7017 33.2002 26.0328V28.1775Z" fill="#4CAF50"/>
<path d="M33.2002 27.9806H51.728C49.6111 25.1677 46.2554 23.3408 42.4647 23.3408C38.674 23.3408 35.3171 25.1677 33.2002 27.9806Z" fill="#4CAF50"/>
<path d="M35.1698 27.9805H33.0123L45.7717 40.7399C45.89 40.1007 45.9596 39.4442 45.9596 38.7703C45.9596 32.8105 41.1285 27.9805 35.1698 27.9805Z" fill="#4CAF50"/>
<path d="M33.2003 28.1775L21.6008 16.5781C22.2295 16.4481 22.8814 16.3809 23.5484 16.3809C28.8795 16.3809 33.2003 20.7017 33.2003 26.0328V28.1775Z" fill="#4CAF50"/>
<path d="M33.2003 27.9806H14.6725C16.7894 25.1677 20.1451 23.3408 23.9358 23.3408C27.7265 23.3408 31.0834 25.1677 33.2003 27.9806Z" fill="#4CAF50"/>
<path d="M31.2306 27.9805H33.3881L20.6287 40.7399C20.5104 40.1007 20.4408 39.4442 20.4408 38.7703C20.4408 32.8105 25.272 27.9805 31.2306 27.9805Z" fill="#4CAF50"/>
<path d="M37.0269 53.1427L52.9193 61.6184H16.961C15.6793 61.6184 14.6411 60.5803 14.6411 59.2985V52.3389H33.8115C34.9332 52.3389 36.0375 52.6149 37.0269 53.1427Z" fill="#FDB52A"/>
<path d="M59.8791 53.4988C57.957 53.4988 56.3992 52.3389 56.3992 52.3389C56.3992 52.3389 54.8414 53.4988 52.9194 53.4988C50.9973 53.4988 49.4395 52.3389 49.4395 52.3389C49.4395 52.3389 47.8817 53.4988 45.9597 53.4988C44.0377 53.4988 42.4799 52.3389 42.4799 52.3389C42.4799 52.3389 40.9221 53.4988 39 53.4988C38.1811 53.4988 37.4376 53.2865 36.8425 53.0441L52.9194 61.6184H61.039C62.3207 61.6184 63.3589 60.5803 63.3589 59.2985V52.3389C63.3589 52.3389 61.8011 53.4988 59.8791 53.4988Z" fill="#2AA4F4"/>
</svg>
