<svg width="78" height="78" viewBox="0 0 78 78" fill="none" xmlns="http://www.w3.org/2000/svg">
<rect width="78" height="78" fill="#F1F1F1"/>
<path d="M52.5839 43.7266H24.041L17.6309 63.8173H58.9941L52.5839 43.7266Z" fill="#FF5634"/>
<path d="M40.9538 27.1817L39.0157 13.6098C38.8998 12.7967 37.7263 12.7967 37.6093 13.6098L35.6711 27.1817H40.9538Z" fill="#929292"/>
<path d="M48.7396 29.8815L54.7786 17.5742C55.1402 16.8368 54.17 16.1761 53.6169 16.7824L44.3728 26.9069L48.7396 29.8815Z" fill="#929292"/>
<path d="M50.9045 37.4046L62.2192 29.6626C62.8963 29.1994 62.3775 28.1464 61.5975 28.4016L48.5681 32.6656L50.9045 37.4046Z" fill="#929292"/>
<path d="M49.3091 44.7129L62.9731 43.5949C63.7921 43.5275 63.8618 42.3564 63.0582 42.1921L49.6282 39.4385L49.3091 44.7129Z" fill="#929292"/>
<path d="M32.2521 26.9069L23.008 16.7824C22.4549 16.1761 21.4847 16.8368 21.8463 17.5742L27.8853 29.8815L32.2521 26.9069Z" fill="#929292"/>
<path d="M28.0567 32.6668L15.0273 28.4016C14.2473 28.1464 13.7273 29.1994 14.4057 29.6626L25.7203 37.4046L28.0567 32.6668Z" fill="#929292"/>
<path d="M26.9978 39.4385L13.5678 42.1921C12.763 42.3575 12.8339 43.5287 13.6529 43.5949L27.3169 44.7129L26.9978 39.4385Z" fill="#929292"/>
<path d="M45.5014 56.7275H38.3125H31.1235C31.1235 56.7275 19.9945 56.7275 15.8582 65.0002H38.3125H60.7668C56.6305 56.7275 45.5014 56.7275 45.5014 56.7275Z" fill="#CACACA"/>
<path d="M38.3124 23.6367C29.703 23.6367 24.1307 27.864 24.1307 36.8056C24.1307 52.6264 38.3124 54.3637 38.3124 54.3637C38.3124 54.3637 52.4941 52.6264 52.4941 36.8056C52.4941 27.864 46.9219 23.6367 38.3124 23.6367Z" fill="#CACACA"/>
<path d="M38.3124 28.3633C28.5696 28.3633 26.4944 34.4437 26.4944 40.1742C26.4944 47.9919 30.7241 51.9994 30.7241 51.9994H45.8996C45.8996 51.9994 50.1293 47.9919 50.1293 40.1742C50.1305 34.4437 48.0552 28.3633 38.3124 28.3633Z" fill="#929292"/>
<path d="M45.4033 50.5469H31.2217V58.3811C31.2217 58.3811 31.2217 62.6356 38.3125 62.6356C45.4033 62.6356 45.4033 58.3811 45.4033 58.3811V50.5469Z" fill="#929292"/>
<path d="M47.7668 41.6581C47.7668 34.4893 43.5277 31.9082 38.3124 31.9082C33.097 31.9082 28.8579 34.4893 28.8579 41.6581C28.8579 42.2171 28.8579 44.3491 28.8579 44.9081C28.8579 52.0745 33.097 57.9079 38.3124 57.9079C43.5277 57.9079 47.7668 52.0745 47.7668 44.9081C47.7668 44.3491 47.7668 42.2171 47.7668 41.6581Z" fill="#CACACA"/>
</svg>
