<svg width="218" height="170" viewBox="0 0 218 170" fill="none" xmlns="http://www.w3.org/2000/svg">
<path d="M128.38 118.203C128.38 118.203 124.409 134.085 108.528 134.085C92.6456 134.085 88.6752 118.203 88.6752 118.203C88.6752 118.203 50.9243 125.018 45.6171 161.119C44.9171 165.88 48.901 169.819 53.7132 169.819H163.342C168.154 169.819 172.138 165.879 171.434 161.119C166.111 125.149 128.38 118.203 128.38 118.203Z" fill="#FF5634"/>
<path d="M108.528 142.025C88.6753 142.025 88.6753 118.202 88.6753 118.202V94.3794H128.38V118.202C128.38 118.202 128.38 142.025 108.528 142.025Z" fill="#F9CFB7"/>
<path d="M152.203 70.5572C152.203 74.9445 148.649 78.4981 144.262 78.4981C139.875 78.4981 136.321 74.9445 136.321 70.5572C136.321 66.1698 139.875 62.6162 144.262 62.6162C148.649 62.6162 152.203 66.1698 152.203 70.5572ZM80.7344 70.5572C80.7344 74.9445 77.1808 78.4981 72.7935 78.4981C68.4061 78.4981 64.8525 74.9445 64.8525 70.5572C64.8525 66.1698 68.4061 62.6162 72.7935 62.6162C77.1808 62.6162 80.7344 66.1698 80.7344 70.5572Z" fill="#F9CFB7"/>
<path d="M144.262 46.7343C144.262 16.4197 72.7935 26.9971 72.7935 46.7343V74.5276C72.7935 94.2648 88.7905 110.262 108.528 110.262C128.265 110.262 144.262 94.2648 144.262 74.5276V46.7343Z" fill="#FFE3D3"/>
<path d="M108.528 11C84.4071 11 68.823 30.5546 68.823 54.6752V63.7437L71.3688 65.928C73.488 67.7463 76.7639 66.2406 76.7639 63.4483V55.4148C76.7639 52.602 78.5638 50.1047 81.2323 49.2152L119.301 36.5257C122.432 35.4821 125.884 36.297 128.217 38.6306L137.739 48.1527C139.373 49.7867 140.291 52.0029 140.291 54.3138V60.9886C140.291 64.7264 144.689 66.7287 147.509 64.2746L148.232 63.6445V54.6752C148.232 38.694 144.111 22.8519 124.41 18.9409L122.847 15.8165C121.371 12.8647 118.354 11 115.054 11H108.528Z" fill="#3F3F3F"/>
<path d="M108.528 142.025C128.38 142.025 135.308 126.422 136.126 120.474C131.532 118.79 128.38 118.203 128.38 118.203C128.38 118.203 124.409 134.085 108.528 134.085C92.6456 134.085 88.6752 118.203 88.6752 118.203C88.6752 118.203 85.5226 118.782 80.9248 120.45C81.7348 126.386 88.6752 142.025 108.528 142.025Z" fill="#FF917B"/>
</svg>
