<svg width="218" height="170" viewBox="0 0 218 170" fill="none" xmlns="http://www.w3.org/2000/svg">
<g clip-path="url(#clip0_2044_30138)">
<path d="M13.7537 51.2739H203.893V162.751C203.893 166.816 200.598 170.111 196.533 170.111H21.1134C17.0487 170.111 13.7537 166.816 13.7537 162.751V51.2739Z" fill="#CFD8DC"/>
<path d="M13.7537 155.852H203.893V162.875C203.893 166.872 200.653 170.112 196.656 170.112H20.9902C16.9936 170.112 13.7537 166.872 13.7537 162.875V155.852Z" fill="#B0BEC5"/>
<path d="M132.591 88.2287C132.591 86.1964 134.238 84.5488 136.27 84.5488H185.952C187.985 84.5488 189.632 86.1964 189.632 88.2287V170.111H132.591V88.2287Z" fill="#656565"/>
<path d="M28.0139 88.2287C28.0139 86.1964 29.6615 84.5488 31.6938 84.5488H114.65C116.682 84.5488 118.33 86.1964 118.33 88.2287V142.664C118.33 144.696 116.682 146.344 114.65 146.344H31.6938C29.6615 146.344 28.0139 144.696 28.0139 142.664V88.2287Z" fill="#B0BEC5"/>
<path d="M33.0337 92.9821C33.0337 90.9498 34.6812 89.3022 36.7136 89.3022H109.635C111.668 89.3022 113.315 90.9498 113.315 92.9821V137.911C113.315 139.943 111.668 141.59 109.635 141.59H36.7136C34.6812 141.59 33.0337 139.943 33.0337 137.911V92.9821Z" fill="#FAFAFA"/>
<path d="M177.749 120.2C176.323 120.2 175.372 121.15 175.372 122.576V132.083C175.372 133.509 176.323 134.46 177.749 134.46C179.175 134.46 180.125 133.509 180.125 132.083V122.576C180.125 121.15 179.175 120.2 177.749 120.2Z" fill="#90A4AE"/>
<path d="M108.823 41.7676C100.947 41.7676 94.5627 48.1515 94.5627 56.028C94.5627 63.9045 100.947 70.2884 108.823 70.2884C116.7 70.2884 123.084 63.9045 123.084 56.028C123.084 48.1515 116.7 41.7676 108.823 41.7676ZM165.865 41.7676C157.988 41.7676 151.604 48.1515 151.604 56.028C151.604 63.9045 157.988 70.2884 165.865 70.2884C173.741 70.2884 180.125 63.9045 180.125 56.028C180.125 48.1515 173.741 41.7676 165.865 41.7676ZM51.7814 41.7676C43.9049 41.7676 37.521 48.1515 37.521 56.028C37.521 63.9045 43.9049 70.2884 51.7814 70.2884C59.6579 70.2884 66.0419 63.9045 66.0419 56.028C66.0419 48.1515 59.6579 41.7676 51.7814 41.7676Z" fill="#EEDFD9"/>
<path d="M123.084 18H94.5627V56.0278H123.084V18Z" fill="#FFF5F1"/>
<path d="M170.618 18H146.851L151.605 56.0278H180.125L170.618 18Z" fill="#FFF5F1"/>
<path d="M47.0279 18H70.7953L66.0418 56.0278H37.521L47.0279 18Z" fill="#FFF5F1"/>
<path d="M137.344 41.7676C129.467 41.7676 123.083 48.1515 123.083 56.028C123.083 63.9045 129.467 70.2884 137.344 70.2884C145.22 70.2884 151.604 63.9045 151.604 56.028C151.604 48.1515 145.22 41.7676 137.344 41.7676ZM208.646 56.028C208.646 64.1089 202.466 70.2884 194.386 70.2884C186.305 70.2884 180.125 64.1089 180.125 56.028C180.125 47.9471 186.305 41.7676 194.386 41.7676L208.646 56.028ZM80.3021 41.7676C72.4256 41.7676 66.0417 48.1515 66.0417 56.028C66.0417 63.9045 72.4256 70.2884 80.3021 70.2884C88.1786 70.2884 94.5626 63.9045 94.5626 56.028C94.5626 48.1515 88.1786 41.7676 80.3021 41.7676ZM9 56.028C9 64.1089 15.1795 70.2884 23.2604 70.2884C31.3413 70.2884 37.5209 64.1089 37.5209 56.028C37.5209 47.9471 31.3413 41.7676 23.2604 41.7676L9 56.028Z" fill="#45A049"/>
<path d="M146.851 18H123.083V56.0278H151.604L146.851 18ZM195.658 21.3925C194.892 19.3519 192.942 18 190.762 18H170.618L180.125 56.0278H208.646L195.658 21.3925ZM70.7952 18H94.5626V56.0278H66.0417L70.7952 18ZM21.9882 21.3925C22.7535 19.3519 24.7043 18 26.8837 18H47.0278L37.5209 56.0278H9L21.9882 21.3925Z" fill="#4CAF50"/>
<path d="M76.4993 89.3022H69.8445V107.365H76.4993V89.3022Z" fill="#263238"/>
<path d="M73.1717 127.33C76.8471 127.33 79.8266 124.351 79.8266 120.675C79.8266 117 76.8471 114.021 73.1717 114.021C69.4963 114.021 66.5168 117 66.5168 120.675C66.5168 124.351 69.4963 127.33 73.1717 127.33Z" fill="#FFC107"/>
<path d="M89.4005 117.024C89.8513 119.006 88.1619 120.675 86.1296 120.675C77.4922 120.675 68.8525 120.675 60.215 120.675C58.1827 120.675 56.4933 119.006 56.9441 117.024C58.6267 109.628 65.2979 104.038 73.1723 104.038C81.0467 104.038 87.718 109.628 89.4005 117.024Z" fill="#FF5634"/>
<path d="M96.8628 136.837H49.4811C48.1262 136.837 47.0278 137.936 47.0278 139.291V141.591H99.3161V139.291C99.3161 137.936 98.2177 136.837 96.8628 136.837Z" fill="#263238"/>
</g>
<defs>
<clipPath id="clip0_2044_30138">
<rect width="218" height="170" fill="white"/>
</clipPath>
</defs>
</svg>
