<svg width="218" height="170" viewBox="0 0 218 170" fill="none" xmlns="http://www.w3.org/2000/svg">
<g clip-path="url(#clip0_2044_30146)">
<path d="M161.571 127.17C149.57 127.17 140.14 136.6 140.14 148.602C140.14 160.604 149.57 170.034 161.571 170.034C173.573 170.034 183.003 160.604 183.003 148.602C183.003 136.6 173.573 127.17 161.571 127.17ZM161.571 161.461C154.285 161.461 148.712 155.889 148.712 148.602C148.712 141.315 154.285 135.743 161.571 135.743C168.858 135.743 174.43 141.315 174.43 148.602C174.43 155.889 168.858 161.461 161.571 161.461Z" fill="#3F3F3F"/>
<path d="M63.5542 127.17C51.5525 127.17 42.1226 136.6 42.1226 148.602C42.1226 160.604 51.5525 170.034 63.5542 170.034C75.5559 170.034 84.9858 160.604 84.9858 148.602C84.9858 136.6 75.5559 127.17 63.5542 127.17ZM63.5542 161.461C56.2674 161.461 50.6952 155.889 50.6952 148.602C50.6952 141.315 56.2674 135.743 63.5542 135.743C70.8409 135.743 76.4131 141.315 76.4131 148.602C76.4131 155.889 70.8409 161.461 63.5542 161.461Z" fill="#3F3F3F"/>
<path d="M158.967 148.335C157.616 148.335 156.603 147.66 155.928 146.309L142.418 119.289C141.742 117.6 142.418 115.573 143.769 114.898C145.457 114.222 147.484 114.898 148.159 116.249L161.669 143.269C162.345 144.958 161.669 146.984 160.318 147.66C159.981 148.335 159.643 148.335 158.967 148.335ZM64.3974 148.335C63.7219 148.335 63.3842 148.335 62.7087 147.997C61.0199 146.984 60.6822 144.958 61.3577 143.269L74.8677 119.626C75.8809 117.938 77.9074 117.6 79.5962 118.275C81.2849 119.289 81.6226 121.315 80.9472 123.004L67.4372 146.646C66.7617 147.66 65.4107 148.335 64.3974 148.335Z" fill="#929292"/>
<path d="M88.04 144.957H135.325C135.325 128.407 147.484 121.99 157.954 120.639C162.683 120.301 162.345 114.56 162.345 114.56C158.967 97.6722 145.457 84.1622 135.325 77.4072L125.192 80.7847L131.947 104.427C131.947 104.427 135.325 131.447 111.683 131.447H88.04V144.957Z" fill="#FF5634"/>
<path d="M64.3974 117.938C84.6624 117.938 91.4174 134.825 91.4174 134.825L98.1724 131.448C94.7949 121.315 88.0399 117.938 88.0399 117.938L91.4174 101.05H37.3774C37.3774 101.05 38.0529 108.143 44.1324 111.183C50.8874 114.56 64.3974 117.938 64.3974 117.938ZM125.192 80.7851C125.192 80.7851 121.815 70.6526 121.815 63.8976C121.815 57.1426 128.57 57.1426 128.57 57.1426H138.702V70.6526H131.947C131.947 70.6526 148.835 87.54 155.59 97.6725L125.192 80.7851Z" fill="#FF5634"/>
<path d="M155.59 97.6725V117.938H165.047C165.722 116.249 165.722 118.951 165.722 118.951C164.034 110.845 160.318 103.752 155.59 97.6725ZM138.702 57.1426V70.6526C142.418 70.6526 145.457 67.6128 145.457 63.8976C145.457 60.1823 142.418 57.1426 138.702 57.1426Z" fill="#FF5634"/>
<path d="M135.549 141.59C135.299 143.438 133.813 144.957 131.947 144.957V144.957C130.082 144.957 128.551 143.441 128.747 141.586C129.471 134.721 132.411 128.281 137.351 123.342C148.375 112.318 165.86 111.574 177.756 121.11C179.197 122.265 179.187 124.4 177.881 125.706V125.706C176.576 127.012 174.47 126.988 172.989 125.884C163.782 119.021 150.4 119.749 142.08 128.07C138.472 131.955 136.233 136.524 135.549 141.59ZM94.6178 141.586C94.8139 143.441 93.2827 144.957 91.4173 144.957V144.957C89.552 144.957 88.066 143.438 87.8158 141.59C87.1313 136.534 84.8919 132.015 81.2848 128.408C72.9642 120.087 59.5823 119.358 50.3751 126.222C48.8946 127.325 46.7891 127.349 45.4834 126.044V126.044C44.1777 124.738 44.168 122.603 45.6087 121.448C57.5043 111.912 74.9897 112.656 86.0133 123.679C90.953 128.328 93.8929 134.727 94.6178 141.586Z" fill="#E13F1F"/>
<path d="M94.7949 99.3612C94.7949 100.752 93.8588 101.962 92.502 102.268C87.6137 103.373 75.7419 105.778 65.073 105.778C53.7813 105.778 40.244 102.634 35.6311 101.474C34.6638 101.23 34 100.359 34 99.3612V99.3612C34 94.6327 39.404 90.9175 44.1325 90.9175H85.3379C90.0664 90.9175 94.7949 94.6327 94.7949 99.3612V99.3612Z" fill="#E13F1F"/>
<path d="M91.4174 36.8773C97.0134 36.8773 101.55 32.3408 101.55 26.7448C101.55 21.1488 97.0134 16.6123 91.4174 16.6123C85.8214 16.6123 81.2849 21.1488 81.2849 26.7448C81.2849 32.3408 85.8214 36.8773 91.4174 36.8773Z" fill="#FFE3D3"/>
<path d="M118.437 89.4654V124.693C118.437 128.408 115.398 131.448 111.682 131.448C109.825 131.448 108.136 130.705 106.92 129.455C105.67 128.239 104.927 126.55 104.927 124.693V97.6727H77.9074C76.759 97.5038 73.7193 96.8621 71.1524 94.2952C67.1331 90.2422 67.6735 84.7707 67.7749 84.0276V51.6712C68.8894 45.4228 74.2597 40.6943 80.4405 40.289C87.2968 39.8162 93.7816 44.6798 95.065 51.6712V82.0687H110.838C115.06 82.0687 118.437 85.3786 118.437 89.4654Z" fill="#607D89"/>
<path d="M129.127 65.9783L114.503 74.422C112.888 75.3542 110.821 74.8003 109.889 73.1858C108.957 71.5714 109.511 69.5044 111.125 68.5722L125.75 60.1284C127.364 59.1962 129.431 59.7502 130.363 61.3646C131.296 62.979 130.742 65.0461 129.127 65.9783Z" fill="#37474F"/>
<path d="M106.65 73.2868L95.0652 75.8537V80.3458C91.0797 81.2239 87.0943 82.102 83.1088 83.014C80.2042 83.6557 77.3333 81.8656 76.624 78.9947C74.3611 71.7331 72.132 64.5053 69.9028 57.2775C73.0101 55.8589 76.0837 54.4741 79.1909 53.0894H79.2247C82.6698 56.5006 86.1486 59.9119 89.5936 63.3569C91.4175 62.9179 93.2413 62.4788 95.0652 62.0735V65.1808C97.2943 64.7079 99.591 64.2013 101.82 63.7285C101.854 63.6947 101.888 63.6947 101.955 63.6947C102.225 63.6271 102.496 63.5934 102.766 63.5258C104.049 66.7682 105.367 70.0444 106.65 73.2868Z" fill="#37474F"/>
<path d="M114.047 71.4967C113.675 71.6993 113.27 71.8344 112.831 71.9358L106.65 73.2868L95.0652 75.8537L84.3586 78.2179C82.5685 78.6232 80.7447 78.0828 79.495 76.8331L69.9029 57.2774L68.8896 55.2172L77.6374 50.9277C78.1778 51.637 78.6844 52.3801 79.191 53.0893H79.2248C82.4672 57.5476 85.6758 62.0059 88.9182 66.5318C90.9447 66.0927 93.005 65.6198 95.0652 65.1808C97.2944 64.7079 99.5911 64.2013 101.82 63.7284C101.854 63.6947 101.888 63.6947 101.955 63.6947C102.226 63.6271 102.496 63.5933 102.766 63.5258C102.935 63.492 103.104 63.4582 103.306 63.4245C105.772 62.8503 108.271 62.3437 110.737 61.8033C113.135 61.2629 115.432 62.3774 116.479 64.4039C116.614 64.6741 116.715 64.9106 116.816 65.2145C116.85 65.3159 116.884 65.3834 116.884 65.5185C116.918 65.5861 116.918 65.6536 116.951 65.7212C117.458 68.0516 116.242 70.4497 114.047 71.4967Z" fill="#607D89"/>
<path d="M100.733 20.8074C99.4222 23.5094 93.2684 20.9831 90.9751 23.9654C88.675 26.9612 92.7314 32.2842 90.3334 34.3748C89.6106 35.0031 88.2798 35.0199 85.615 35.047C83.2575 35.0706 81.8491 35.0875 80.4643 34.4998C76.7491 32.9259 75.6818 28.0691 75.4521 27.0389C74.6787 23.523 75.2292 18.9127 78.3466 15.3528C83.3284 9.66508 90.9447 11.1242 91.708 11.2829C92.6908 11.4889 96.7844 12.3468 99.2567 15.927C99.966 16.947 101.516 19.1896 100.733 20.8074Z" fill="#FF5634"/>
</g>
<defs>
<clipPath id="clip0_2044_30146">
<rect width="218" height="170" fill="white"/>
</clipPath>
</defs>
</svg>
