<svg width="78" height="79" viewBox="0 0 78 79" fill="none" xmlns="http://www.w3.org/2000/svg">
<rect width="78" height="78" transform="translate(0 0.949219)" fill="#F1F1F1"/>
<path d="M40.0781 23.2402H37.9219V30.7872H40.0781V23.2402Z" fill="#E13F1F"/>
<path d="M46.5469 23.2402H44.3906V30.7872H46.5469V23.2402Z" fill="#E13F1F"/>
<path d="M59.4845 23.2402H57.3282V30.7872H59.4845V23.2402Z" fill="#E13F1F"/>
<path d="M20.6718 23.2402H18.5155V30.7872H20.6718V23.2402Z" fill="#E13F1F"/>
<path d="M27.1406 23.2402H24.9844V30.7872H27.1406V23.2402Z" fill="#E13F1F"/>
<path d="M33.6094 23.2402H31.4531V30.7872H33.6094V23.2402Z" fill="#E13F1F"/>
<path d="M53.0158 23.2402H50.8595V30.7872H53.0158V23.2402Z" fill="#E13F1F"/>
<path d="M61.6408 30.7871H16.3593V35.0996C19.9322 35.0996 22.828 37.9955 22.828 41.5684V51.2716H29.2968V44.8028C29.2968 39.4434 33.6406 35.0996 39 35.0996C44.3594 35.0996 48.7032 39.4434 48.7032 44.8028V51.2716H55.172V41.5684C55.172 37.9955 58.0678 35.0996 61.6408 35.0996V30.7871Z" fill="#E13F1F"/>
<path d="M58.4064 49.1143C56.6199 49.1143 55.172 48.0361 55.172 48.0361C55.172 48.0361 53.724 49.1143 51.9376 49.1143C50.1511 49.1143 48.7032 48.0361 48.7032 48.0361C48.7032 48.0361 47.2553 49.1143 45.4688 49.1143C43.6823 49.1143 42.2344 48.0361 42.2344 48.0361C42.2344 48.0361 40.7865 49.1143 39 49.1143C37.2135 49.1143 35.7656 48.0361 35.7656 48.0361C35.7656 48.0361 34.3177 49.1143 32.5312 49.1143C30.7448 49.1143 29.2968 48.0361 29.2968 48.0361C29.2968 48.0361 27.8489 49.1143 26.0624 49.1143C24.276 49.1143 22.828 48.0361 22.828 48.0361C22.828 48.0361 21.3801 49.1143 19.5936 49.1143C17.8072 49.1143 16.3593 48.0361 16.3593 48.0361V56.6612C16.3593 57.8525 17.3242 58.8174 18.5155 58.8174H42.2344H51.9376H59.4845C60.6758 58.8174 61.6408 57.8525 61.6408 56.6612V48.0361C61.6408 48.0361 60.1928 49.1143 58.4064 49.1143Z" fill="#2AA4F4"/>
<path d="M61.6408 21.083H16.3593V23.2393H61.6408V21.083Z" fill="#FF5634"/>
</svg>
