<svg width="78" height="78" viewBox="0 0 78 78" fill="none" xmlns="http://www.w3.org/2000/svg">
<g clip-path="url(#clip0_2036_32515)">
<rect width="78" height="78" fill="#F1F1F1"/>
<path d="M47.2031 93.4374H30.7969L34.8984 44.2188H43.1015L47.2031 93.4374Z" fill="#929292"/>
<path d="M37.3594 93.4374H30.7969L34.8984 44.2188H37.3594V93.4374Z" fill="#CACACA"/>
<path d="M39.5469 24.5312C39.3314 24.5313 39.118 24.512 38.9189 24.4746C38.7198 24.4371 38.5389 24.3822 38.3865 24.3129C38.2341 24.2437 38.1133 24.1614 38.0309 24.0709C37.9485 23.9804 37.9061 23.8834 37.9063 23.7855V8.87074C37.9063 8.67296 38.0791 8.48327 38.3868 8.34342C38.6945 8.20357 39.1118 8.125 39.5469 8.125C39.982 8.125 40.3993 8.20357 40.707 8.34342C41.0146 8.48327 41.1875 8.67296 41.1875 8.87074V23.7855C41.1876 23.8834 41.1453 23.9804 41.0629 24.0709C40.9805 24.1614 40.8596 24.2437 40.7072 24.3129C40.5549 24.3822 40.374 24.4371 40.1749 24.4746C39.9758 24.512 39.7624 24.5313 39.5469 24.5312V24.5312Z" fill="#1D88FE"/>
<path d="M33.3489 21.25H44.6509C45.5212 21.25 46.3558 21.5957 46.9711 22.2111C47.5865 22.8264 47.9322 23.661 47.9322 24.5312V31.0937H30.0676V24.5312C30.0676 23.661 30.4133 22.8264 31.0287 22.2111C31.644 21.5957 32.4786 21.25 33.3489 21.25Z" fill="#8FC3FF"/>
<path d="M52.125 31.0938H25.875C24.0628 31.0938 22.5938 32.5628 22.5938 34.375C22.5938 36.1872 24.0628 37.6562 25.875 37.6562H52.1249C53.9371 37.6562 55.4062 36.1872 55.4062 34.375C55.4062 32.5628 53.9371 31.0938 52.125 31.0938Z" fill="#1D88FE"/>
<path d="M59.7812 37.6562H18.2187C17.0106 37.6562 16.0312 38.6356 16.0312 39.8437C16.0312 41.0519 17.0106 42.0312 18.2187 42.0312H59.7812C60.9893 42.0312 61.9687 41.0519 61.9687 39.8437C61.9687 38.6356 60.9893 37.6562 59.7812 37.6562Z" fill="#8FC3FF"/>
<path d="M52.125 42.0312H25.875C24.0628 42.0312 22.5938 43.5003 22.5938 45.3125C22.5938 47.1247 24.0628 48.5937 25.875 48.5937H52.1249C53.9371 48.5937 55.4062 47.1247 55.4062 45.3125C55.4062 43.5003 53.9371 42.0312 52.125 42.0312Z" fill="#1D88FE"/>
</g>
<defs>
<clipPath id="clip0_2036_32515">
<rect width="78" height="78" fill="white"/>
</clipPath>
</defs>
</svg>
